<svg width="201" height="40" viewBox="0 0 201 40" fill="none" xmlns="http://www.w3.org/2000/svg">
<g clip-path="url(#clip0)">
<path d="M9.33879 14.7235L4.07221 19.9901L9.33879 25.2566L14.6054 19.9901L9.33879 14.7235Z" fill="#D7B399"/>
<path d="M19.9944 4.08541L14.7278 9.35199L19.9944 14.6186L25.261 9.35199L19.9944 4.08541Z" fill="#D7B399"/>
<path d="M19.9914 25.3938L14.7248 30.6604L19.9913 35.927L25.2579 30.6604L19.9914 25.3938Z" fill="#D7B399"/>
<path d="M30.647 14.7266L25.3804 19.9932L30.647 25.2597L35.9136 19.9932L30.647 14.7266Z" fill="#D7B399"/>
<path d="M28.6102 12.6866L23.3436 17.9532L25.3828 19.9923L30.6494 14.7258L28.6102 12.6866Z" fill="#D7B399"/>
<path d="M17.9547 23.3532L12.6881 28.6198L14.7273 30.659L19.9938 25.3924L17.9547 23.3532Z" fill="#D7B399"/>
<path d="M25.2587 9.35299L19.9921 14.6196L22.0313 16.6587L27.2978 11.3921L25.2587 9.35299Z" fill="#D7B399"/>
<path d="M14.6177 20.0053L9.35116 25.2719L11.3903 27.311L16.6569 22.0444L14.6177 20.0053Z" fill="#D7B399"/>
<path d="M11.3788 12.6864L9.33961 14.7256L14.6062 19.9922L16.6453 17.953L11.3788 12.6864Z" fill="#D7B399"/>
<path d="M14.727 9.34953L12.6879 11.3887L17.9544 16.6552L19.9936 14.6161L14.727 9.34953Z" fill="#D7B399"/>
<path d="M25.3796 19.9905L23.3405 22.0296L28.607 27.2962L30.6462 25.257L25.3796 19.9905Z" fill="#D7B399"/>
<path d="M22.046 23.342L20.0069 25.3812L25.2734 30.6477L27.3126 28.6086L22.046 23.342Z" fill="#D7B399"/>
<path d="M27.3029 32.6971L25.2697 30.6639L20 35.9336L14.7303 30.6639L12.6971 32.6971L20 40L27.3029 32.6971Z" fill="#D7B399"/>
<path d="M9.3361 14.7303L7.3029 12.6971L0 20L7.3029 27.3029L9.3361 25.2697L4.06639 20L9.3361 14.7303Z" fill="#D7B399"/>
<path d="M32.6971 12.6971L30.6639 14.7303L35.9336 20L30.6639 25.2697L32.6971 27.3029L40 20L32.6971 12.6971Z" fill="#D7B399"/>
<path d="M25.2697 9.3361L27.3029 7.3029L20 0L12.6971 7.3029L14.7303 9.3361L20 4.06639L25.2697 9.3361Z" fill="#D7B399"/>
</g>
<path d="M65.472 29H69.36V15.368H74.736V12.2H60.096V15.368H65.472V29ZM89.5479 12.2V18.824H81.9159V12.2H78.0279V29H81.9159V22.112H89.5479V29H93.4359V12.2H89.5479ZM102.475 25.88V21.992H110.275V18.968H102.475V15.32H111.307V12.2H98.6108V29H111.619V25.88H102.475ZM123.909 29H136.221V25.832H127.797V12.2H123.909V29ZM147.448 29.288C152.728 29.288 156.64 25.616 156.64 20.6C156.64 15.584 152.728 11.912 147.448 11.912C142.144 11.912 138.256 15.608 138.256 20.6C138.256 25.592 142.144 29.288 147.448 29.288ZM147.448 25.976C144.448 25.976 142.192 23.792 142.192 20.6C142.192 17.408 144.448 15.224 147.448 15.224C150.448 15.224 152.704 17.408 152.704 20.6C152.704 23.792 150.448 25.976 147.448 25.976ZM168.898 29.288C174.178 29.288 178.09 25.616 178.09 20.6C178.09 15.584 174.178 11.912 168.898 11.912C163.594 11.912 159.706 15.608 159.706 20.6C159.706 25.592 163.594 29.288 168.898 29.288ZM168.898 25.976C165.898 25.976 163.642 23.792 163.642 20.6C163.642 17.408 165.898 15.224 168.898 15.224C171.898 15.224 174.154 17.408 174.154 20.6C174.154 23.792 171.898 25.976 168.898 25.976ZM189.484 12.2H182.212V29H186.1V24.368H189.484C193.972 24.368 196.78 22.04 196.78 18.296C196.78 14.528 193.972 12.2 189.484 12.2ZM189.268 21.2H186.1V15.368H189.268C191.644 15.368 192.844 16.448 192.844 18.296C192.844 20.12 191.644 21.2 189.268 21.2Z" fill="#212121"/>
<defs>
<clipPath id="clip0">
<rect width="40" height="40" fill="white"/>
</clipPath>
</defs>
</svg>
